<svg xmlns="http://www.w3.org/2000/svg" viewBox="0 0 24 24" fill="none" stroke="currentColor" stroke-width="2" stroke-linecap="round" stroke-linejoin="round">
  <defs>
    <linearGradient id="blueGradient" x1="0%" y1="0%" x2="100%" y2="100%">
      <stop offset="0%" stop-color="#3b82f6" />
      <stop offset="100%" stop-color="#8b5cf6" />
    </linearGradient>
  </defs>
  <path d="M2 9a3 3 0 0 1 0 6v2a2 2 0 0 0 2 2h16a2 2 0 0 0 2-2v-2a3 3 0 0 1 0-6V7a2 2 0 0 0-2-2H4a2 2 0 0 0-2 2Z" stroke="url(#blueGradient)" fill="#eff6ff" />
  <path d="M13 5v2" stroke="url(#blueGradient)"/>
  <path d="M13 17v2" stroke="url(#blueGradient)"/>
  <path d="M13 11v2" stroke="url(#blueGradient)"/>
</svg>
